# xmcd CD database file
#
# Track frame offsets:
#	150
#	23445
#	39125
#	60910
#	78945
#	96633
#	115475
#	136247
#	159050
#
# Disc length: 2476 seconds
#
# Revision: 1
# Processed by: cddbd v1.5.1PL2 Copyright (c) Steve Scherf et al.
# Submitted via: CDex 1.60beta1-cs1
#
DISCID=5d09aa09
DTITLE=Marlena Shaw - Marlena
DYEAR=1972
DGENRE=Jazz
TTITLE0=What Are You Doing The Rest Of Your Life
TTITLE1=Somewhere
TTITLE2=Runnin' Out Of Fools
TTITLE3=So Far Away
TTITLE4=I'm Gonna Find Out
TTITLE5=Save The Children
TTITLE6=You Must Believe In Spring
TTITLE7=Wipe Away The Evil
TTITLE8=Things Don't Never Go My Way
EXTD=YEAR: 1972
EXTT0=
EXTT1=
EXTT2=
EXTT3=
EXTT4=
EXTT5=
EXTT6=
EXTT7=
EXTT8=
PLAYORDER=
